<?xml version="1.0" encoding="utf-8"?>
<svg version="1.1" id="Layer_2" xmlns="http://www.w3.org/2000/svg" xmlns:xlink="http://www.w3.org/1999/xlink" x="0px" y="0px"
	 viewBox="0 0 329.64 377.63" enable-background="new 0 0 329.64 377.63" xml:space="preserve">
<rect x="80.76" y="77.83" fill="#D02227" width="30.1" height="260.88"/>
<rect x="71.06" y="6.78" transform="matrix(-3.304630e-14 1 -1 -3.304630e-14 176.6117 6.7756)" fill="#D02227" width="27.72" height="169.84"/>
<rect x="169.84" y="38.91" fill="#36A849" width="30.1" height="251.98"/>
<rect x="93.77" y="35.67" transform="matrix(-1 -1.224647e-16 1.224647e-16 -1 193.8278 113.4985)" fill="#8B8D8E" width="6.28" height="42.17"/>
<rect x="93.11" y="338.72" transform="matrix(-1 -1.224647e-16 1.224647e-16 -1 192.5004 716.347)" fill="#8B8D8E" width="6.28" height="38.92"/>
<rect x="181.75" y="290.89" transform="matrix(-1 -1.224647e-16 1.224647e-16 -1 369.77 668.5205)" fill="#8B8D8E" width="6.28" height="86.74"/>
<line fill="#B6B6B9" x1="182.88" y1="38.92" x2="182.88" y2="0"/>
<polyline fill="#8B8D8E" points="181.75,0 188.03,0 188.03,38.91 181.75,38.91 "/>
<path fill="#36A849" d="M255.04,113.66c-41.2,0-74.6,39.67-74.6,88.62c0,48.94,33.4,88.62,74.6,88.62s74.6-39.67,74.6-88.62
	C329.64,153.33,296.24,113.66,255.04,113.66z M254.5,261.66c-23.84,0-43.17-26.59-43.17-59.38c0-32.8,19.33-59.38,43.17-59.38
	s43.17,26.59,43.17,59.38C297.67,235.07,278.34,261.66,254.5,261.66z"/>
</svg>
